# xmcd
# 
# Track frame offsets:
#   150
#   791
#   14404
#   36222
#   55593
#   72276
#   92633
#   103711
#   118611
#   136765
#   153525
#   172391
#   187039
#   202133
#   219120
#   237941
#   256144
#   273146
#   292090
# 
# Disc length: 4137 seconds
# 
# Revision: 1
# Processed by: cddbd v1.5.1PL0 Copyright (c) Steve Scherf et al.
# Submitted via: VOLTOCDX V1.0.24 
# 
DISCID=0a102713
DTITLE=50 cent - Get rich or die tryin
DYEAR=2002
DGENRE=Description of the extended genre
TTITLE0=
TTITLE1=What Up Gangsta?
TTITLE2=Patiently Waiting (feat. Emine
TTITLE3=Many Men (Wish Death)
TTITLE4=In Da Club (Dirty)
TTITLE5=High All the Time
TTITLE6=Cocaine Dreams Feat. G-Unit
TTITLE7=If I Can't
TTITLE8=Blood Hound (feat. Young Buc)
TTITLE9=Back Down (Dirty)
TTITLE10=P.I.M.P.
TTITLE11=Like My Style (feat. Tony Yayo
TTITLE12=Poor Lil' Rich
TTITLE13=21 Questions (Featuring Nate D
TTITLE14=Don't Push Me (feat. Eminem &
TTITLE15=Gotta Get
TTITLE16=Wanksta
TTITLE17=U Not Like Me
TTITLE18=The Good Die Young
EXTD=Extended CD description
EXTT0=
EXTT1=
EXTT2=
EXTT3=
EXTT4=
EXTT5=
EXTT6=
EXTT7=
EXTT8=
EXTT9=
EXTT10=
EXTT11=
EXTT12=
EXTT13=
EXTT14=
EXTT15=
EXTT16=
EXTT17=
EXTT18=
PLAYORDER=
